<mxfile host="app.diagrams.net" modified="2022-09-21T16:28:21.126Z" agent="5.0 (Windows NT 10.0; Win64; x64) AppleWebKit/537.36 (KHTML, like Gecko) Chrome/105.0.0.0 Safari/537.36" etag="Odf6JPc2OOdwugPSHm0G" version="20.3.3" type="github">
  <diagram id="3IHkn_Uqt2YuIlHogCX0" name="Página-1">
    <mxGraphModel dx="2249" dy="794" grid="1" gridSize="10" guides="1" tooltips="1" connect="1" arrows="1" fold="1" page="1" pageScale="1" pageWidth="827" pageHeight="1169" math="0" shadow="0">
      <root>
        <mxCell id="0" />
        <mxCell id="1" parent="0" />
        <mxCell id="a7aFBZgi1aLY28mfUyYS-1" value="cliente" style="whiteSpace=wrap;html=1;align=center;fillColor=#dae8fc;strokeColor=#6c8ebf;" vertex="1" parent="1">
          <mxGeometry x="-130" y="160" width="100" height="40" as="geometry" />
        </mxCell>
        <mxCell id="a7aFBZgi1aLY28mfUyYS-2" value="auto" style="whiteSpace=wrap;html=1;align=center;fillColor=#dae8fc;strokeColor=#6c8ebf;" vertex="1" parent="1">
          <mxGeometry x="590" y="160" width="100" height="40" as="geometry" />
        </mxCell>
        <mxCell id="a7aFBZgi1aLY28mfUyYS-37" value="" style="edgeStyle=orthogonalEdgeStyle;rounded=0;orthogonalLoop=1;jettySize=auto;html=1;" edge="1" parent="1" source="a7aFBZgi1aLY28mfUyYS-4" target="a7aFBZgi1aLY28mfUyYS-36">
          <mxGeometry relative="1" as="geometry" />
        </mxCell>
        <mxCell id="a7aFBZgi1aLY28mfUyYS-39" value="" style="edgeStyle=orthogonalEdgeStyle;rounded=0;orthogonalLoop=1;jettySize=auto;html=1;" edge="1" parent="1" source="a7aFBZgi1aLY28mfUyYS-4" target="a7aFBZgi1aLY28mfUyYS-38">
          <mxGeometry relative="1" as="geometry" />
        </mxCell>
        <mxCell id="a7aFBZgi1aLY28mfUyYS-4" value="compra" style="shape=rhombus;perimeter=rhombusPerimeter;whiteSpace=wrap;html=1;align=center;fillColor=#f8cecc;strokeColor=#b85450;" vertex="1" parent="1">
          <mxGeometry x="240" y="150" width="120" height="60" as="geometry" />
        </mxCell>
        <mxCell id="a7aFBZgi1aLY28mfUyYS-7" value="NOMBRE" style="ellipse;whiteSpace=wrap;html=1;align=center;" vertex="1" parent="1">
          <mxGeometry x="-90" y="80" width="100" height="40" as="geometry" />
        </mxCell>
        <mxCell id="a7aFBZgi1aLY28mfUyYS-8" value="NUMERO TELEFONICO" style="ellipse;whiteSpace=wrap;html=1;align=center;" vertex="1" parent="1">
          <mxGeometry x="-210" y="80" width="100" height="40" as="geometry" />
        </mxCell>
        <mxCell id="a7aFBZgi1aLY28mfUyYS-9" value="DIRECCION" style="ellipse;whiteSpace=wrap;html=1;align=center;" vertex="1" parent="1">
          <mxGeometry x="-350" y="80" width="100" height="40" as="geometry" />
        </mxCell>
        <mxCell id="a7aFBZgi1aLY28mfUyYS-10" value="CIUDAD" style="ellipse;whiteSpace=wrap;html=1;align=center;" vertex="1" parent="1">
          <mxGeometry x="-400" y="150" width="100" height="40" as="geometry" />
        </mxCell>
        <mxCell id="a7aFBZgi1aLY28mfUyYS-12" value="RFC" style="ellipse;whiteSpace=wrap;html=1;align=center;" vertex="1" parent="1">
          <mxGeometry x="-300" y="200" width="100" height="40" as="geometry" />
        </mxCell>
        <mxCell id="a7aFBZgi1aLY28mfUyYS-13" value="código interno&amp;nbsp;" style="ellipse;whiteSpace=wrap;html=1;align=center;fontStyle=4;fillColor=#fff2cc;strokeColor=#d6b656;" vertex="1" parent="1">
          <mxGeometry x="40" y="80" width="100" height="40" as="geometry" />
        </mxCell>
        <mxCell id="a7aFBZgi1aLY28mfUyYS-15" value="marca" style="ellipse;whiteSpace=wrap;html=1;align=center;" vertex="1" parent="1">
          <mxGeometry x="560" y="40" width="100" height="40" as="geometry" />
        </mxCell>
        <mxCell id="a7aFBZgi1aLY28mfUyYS-16" value="modelo" style="ellipse;whiteSpace=wrap;html=1;align=center;" vertex="1" parent="1">
          <mxGeometry x="690" y="50" width="100" height="40" as="geometry" />
        </mxCell>
        <mxCell id="a7aFBZgi1aLY28mfUyYS-17" value="color" style="ellipse;whiteSpace=wrap;html=1;align=center;" vertex="1" parent="1">
          <mxGeometry x="780" y="160" width="100" height="40" as="geometry" />
        </mxCell>
        <mxCell id="a7aFBZgi1aLY28mfUyYS-18" value="precio" style="ellipse;whiteSpace=wrap;html=1;align=center;" vertex="1" parent="1">
          <mxGeometry x="650" y="240" width="100" height="40" as="geometry" />
        </mxCell>
        <mxCell id="a7aFBZgi1aLY28mfUyYS-20" value="matricula" style="ellipse;whiteSpace=wrap;html=1;align=center;fontStyle=4;fillColor=#fff2cc;strokeColor=#d6b656;" vertex="1" parent="1">
          <mxGeometry x="520" y="240" width="100" height="40" as="geometry" />
        </mxCell>
        <mxCell id="a7aFBZgi1aLY28mfUyYS-26" value="revision" style="whiteSpace=wrap;html=1;align=center;fillColor=#dae8fc;strokeColor=#6c8ebf;" vertex="1" parent="1">
          <mxGeometry x="600" y="560" width="100" height="40" as="geometry" />
        </mxCell>
        <mxCell id="a7aFBZgi1aLY28mfUyYS-27" value="código de revisión incrementable" style="ellipse;whiteSpace=wrap;html=1;align=center;fontStyle=4;fillColor=#fff2cc;strokeColor=#d6b656;" vertex="1" parent="1">
          <mxGeometry x="450" y="560" width="100" height="40" as="geometry" />
        </mxCell>
        <mxCell id="a7aFBZgi1aLY28mfUyYS-28" value="cambio de filtros" style="ellipse;whiteSpace=wrap;html=1;align=center;" vertex="1" parent="1">
          <mxGeometry x="460" y="640" width="100" height="40" as="geometry" />
        </mxCell>
        <mxCell id="a7aFBZgi1aLY28mfUyYS-29" value="cambio de aceite" style="ellipse;whiteSpace=wrap;html=1;align=center;" vertex="1" parent="1">
          <mxGeometry x="590" y="640" width="100" height="40" as="geometry" />
        </mxCell>
        <mxCell id="a7aFBZgi1aLY28mfUyYS-30" value="cambio de frenos" style="ellipse;whiteSpace=wrap;html=1;align=center;" vertex="1" parent="1">
          <mxGeometry x="790" y="560" width="100" height="40" as="geometry" />
        </mxCell>
        <mxCell id="a7aFBZgi1aLY28mfUyYS-36" value="fecha de compra" style="ellipse;whiteSpace=wrap;html=1;fillColor=#f8cecc;strokeColor=#b85450;" vertex="1" parent="1">
          <mxGeometry x="240" y="10" width="120" height="60" as="geometry" />
        </mxCell>
        <mxCell id="a7aFBZgi1aLY28mfUyYS-38" value="total de compra" style="ellipse;whiteSpace=wrap;html=1;fillColor=#f8cecc;strokeColor=#b85450;" vertex="1" parent="1">
          <mxGeometry x="240" y="290" width="120" height="60" as="geometry" />
        </mxCell>
        <mxCell id="a7aFBZgi1aLY28mfUyYS-49" value="código cliente" style="ellipse;whiteSpace=wrap;html=1;align=center;" vertex="1" parent="1">
          <mxGeometry x="760" y="240" width="100" height="40" as="geometry" />
        </mxCell>
        <mxCell id="a7aFBZgi1aLY28mfUyYS-50" value="&lt;span style=&quot;background-color: initial;&quot;&gt;matricula&lt;/span&gt;" style="ellipse;whiteSpace=wrap;html=1;align=center;" vertex="1" parent="1">
          <mxGeometry x="727" y="630" width="100" height="40" as="geometry" />
        </mxCell>
        <mxCell id="a7aFBZgi1aLY28mfUyYS-51" value="realiza" style="shape=rhombus;perimeter=rhombusPerimeter;whiteSpace=wrap;html=1;align=center;" vertex="1" parent="1">
          <mxGeometry x="580" y="380" width="120" height="60" as="geometry" />
        </mxCell>
        <mxCell id="a7aFBZgi1aLY28mfUyYS-55" value="" style="endArrow=none;html=1;rounded=0;entryX=0.5;entryY=1;entryDx=0;entryDy=0;exitX=0.5;exitY=0;exitDx=0;exitDy=0;" edge="1" parent="1" source="a7aFBZgi1aLY28mfUyYS-51" target="a7aFBZgi1aLY28mfUyYS-2">
          <mxGeometry width="50" height="50" relative="1" as="geometry">
            <mxPoint x="625" y="360" as="sourcePoint" />
            <mxPoint x="675" y="310" as="targetPoint" />
          </mxGeometry>
        </mxCell>
        <mxCell id="a7aFBZgi1aLY28mfUyYS-56" value="" style="endArrow=none;html=1;rounded=0;entryX=0.5;entryY=1;entryDx=0;entryDy=0;exitX=0.41;exitY=0;exitDx=0;exitDy=0;exitPerimeter=0;" edge="1" parent="1" source="a7aFBZgi1aLY28mfUyYS-26" target="a7aFBZgi1aLY28mfUyYS-51">
          <mxGeometry width="50" height="50" relative="1" as="geometry">
            <mxPoint x="620" y="530" as="sourcePoint" />
            <mxPoint x="670" y="480" as="targetPoint" />
          </mxGeometry>
        </mxCell>
        <mxCell id="a7aFBZgi1aLY28mfUyYS-57" value="" style="endArrow=none;html=1;rounded=0;entryX=0;entryY=0.5;entryDx=0;entryDy=0;exitX=1;exitY=0.5;exitDx=0;exitDy=0;" edge="1" parent="1" source="a7aFBZgi1aLY28mfUyYS-1" target="a7aFBZgi1aLY28mfUyYS-4">
          <mxGeometry width="50" height="50" relative="1" as="geometry">
            <mxPoint x="80" y="200" as="sourcePoint" />
            <mxPoint x="130" y="150" as="targetPoint" />
          </mxGeometry>
        </mxCell>
        <mxCell id="a7aFBZgi1aLY28mfUyYS-59" value="" style="endArrow=none;html=1;rounded=0;entryX=0;entryY=0.5;entryDx=0;entryDy=0;exitX=1;exitY=0.5;exitDx=0;exitDy=0;" edge="1" parent="1" source="a7aFBZgi1aLY28mfUyYS-4" target="a7aFBZgi1aLY28mfUyYS-2">
          <mxGeometry width="50" height="50" relative="1" as="geometry">
            <mxPoint x="430" y="205" as="sourcePoint" />
            <mxPoint x="480" y="155" as="targetPoint" />
          </mxGeometry>
        </mxCell>
        <mxCell id="a7aFBZgi1aLY28mfUyYS-60" value="" style="endArrow=none;html=1;rounded=0;" edge="1" parent="1">
          <mxGeometry relative="1" as="geometry">
            <mxPoint x="430" y="179.5" as="sourcePoint" />
            <mxPoint x="590" y="179.5" as="targetPoint" />
          </mxGeometry>
        </mxCell>
        <mxCell id="a7aFBZgi1aLY28mfUyYS-61" value="N" style="resizable=0;html=1;align=right;verticalAlign=bottom;" connectable="0" vertex="1" parent="a7aFBZgi1aLY28mfUyYS-60">
          <mxGeometry x="1" relative="1" as="geometry" />
        </mxCell>
        <mxCell id="a7aFBZgi1aLY28mfUyYS-62" value="" style="endArrow=none;html=1;rounded=0;" edge="1" parent="1">
          <mxGeometry relative="1" as="geometry">
            <mxPoint x="430" y="199" as="sourcePoint" />
            <mxPoint x="590" y="199" as="targetPoint" />
          </mxGeometry>
        </mxCell>
        <mxCell id="a7aFBZgi1aLY28mfUyYS-63" value="1" style="resizable=0;html=1;align=right;verticalAlign=bottom;" connectable="0" vertex="1" parent="a7aFBZgi1aLY28mfUyYS-62">
          <mxGeometry x="1" relative="1" as="geometry" />
        </mxCell>
        <mxCell id="a7aFBZgi1aLY28mfUyYS-64" value="" style="endArrow=none;html=1;rounded=0;" edge="1" parent="1">
          <mxGeometry relative="1" as="geometry">
            <mxPoint x="50" y="199" as="sourcePoint" />
            <mxPoint x="-20" y="199" as="targetPoint" />
            <Array as="points">
              <mxPoint x="120" y="199" />
            </Array>
          </mxGeometry>
        </mxCell>
        <mxCell id="a7aFBZgi1aLY28mfUyYS-65" value="1" style="resizable=0;html=1;align=right;verticalAlign=bottom;" connectable="0" vertex="1" parent="a7aFBZgi1aLY28mfUyYS-64">
          <mxGeometry x="1" relative="1" as="geometry" />
        </mxCell>
        <mxCell id="a7aFBZgi1aLY28mfUyYS-68" value="" style="endArrow=none;html=1;rounded=0;" edge="1" parent="1">
          <mxGeometry relative="1" as="geometry">
            <mxPoint x="-30" y="179.5" as="sourcePoint" />
            <mxPoint x="-20" y="180" as="targetPoint" />
          </mxGeometry>
        </mxCell>
        <mxCell id="a7aFBZgi1aLY28mfUyYS-69" value="1" style="resizable=0;html=1;align=right;verticalAlign=bottom;" connectable="0" vertex="1" parent="a7aFBZgi1aLY28mfUyYS-68">
          <mxGeometry x="1" relative="1" as="geometry" />
        </mxCell>
        <mxCell id="a7aFBZgi1aLY28mfUyYS-70" value="" style="endArrow=none;html=1;rounded=0;exitX=0.96;exitY=0.25;exitDx=0;exitDy=0;exitPerimeter=0;entryX=0;entryY=1;entryDx=0;entryDy=0;" edge="1" parent="1" source="a7aFBZgi1aLY28mfUyYS-12" target="a7aFBZgi1aLY28mfUyYS-1">
          <mxGeometry width="50" height="50" relative="1" as="geometry">
            <mxPoint x="-190" y="210" as="sourcePoint" />
            <mxPoint x="-140" y="160" as="targetPoint" />
          </mxGeometry>
        </mxCell>
        <mxCell id="a7aFBZgi1aLY28mfUyYS-71" value="" style="endArrow=none;html=1;rounded=0;exitX=1;exitY=0.5;exitDx=0;exitDy=0;entryX=0;entryY=0.5;entryDx=0;entryDy=0;" edge="1" parent="1" source="a7aFBZgi1aLY28mfUyYS-10" target="a7aFBZgi1aLY28mfUyYS-1">
          <mxGeometry width="50" height="50" relative="1" as="geometry">
            <mxPoint x="-260" y="180" as="sourcePoint" />
            <mxPoint x="-210" y="130" as="targetPoint" />
          </mxGeometry>
        </mxCell>
        <mxCell id="a7aFBZgi1aLY28mfUyYS-72" value="" style="endArrow=none;html=1;rounded=0;exitX=1;exitY=1;exitDx=0;exitDy=0;entryX=0;entryY=0;entryDx=0;entryDy=0;" edge="1" parent="1" source="a7aFBZgi1aLY28mfUyYS-9" target="a7aFBZgi1aLY28mfUyYS-1">
          <mxGeometry width="50" height="50" relative="1" as="geometry">
            <mxPoint x="-260" y="160" as="sourcePoint" />
            <mxPoint x="-210" y="110" as="targetPoint" />
          </mxGeometry>
        </mxCell>
        <mxCell id="a7aFBZgi1aLY28mfUyYS-73" value="" style="endArrow=none;html=1;rounded=0;exitX=0.73;exitY=1.075;exitDx=0;exitDy=0;exitPerimeter=0;entryX=0.34;entryY=0;entryDx=0;entryDy=0;entryPerimeter=0;" edge="1" parent="1" source="a7aFBZgi1aLY28mfUyYS-8" target="a7aFBZgi1aLY28mfUyYS-1">
          <mxGeometry width="50" height="50" relative="1" as="geometry">
            <mxPoint x="-130" y="160" as="sourcePoint" />
            <mxPoint x="-80" y="110" as="targetPoint" />
          </mxGeometry>
        </mxCell>
        <mxCell id="a7aFBZgi1aLY28mfUyYS-74" value="" style="endArrow=none;html=1;rounded=0;exitX=0.75;exitY=0;exitDx=0;exitDy=0;entryX=0.5;entryY=1;entryDx=0;entryDy=0;" edge="1" parent="1" source="a7aFBZgi1aLY28mfUyYS-1" target="a7aFBZgi1aLY28mfUyYS-7">
          <mxGeometry width="50" height="50" relative="1" as="geometry">
            <mxPoint x="-20" y="160" as="sourcePoint" />
            <mxPoint x="30" y="110" as="targetPoint" />
          </mxGeometry>
        </mxCell>
        <mxCell id="a7aFBZgi1aLY28mfUyYS-75" value="" style="endArrow=none;html=1;rounded=0;exitX=1;exitY=0;exitDx=0;exitDy=0;entryX=0.06;entryY=0.85;entryDx=0;entryDy=0;entryPerimeter=0;" edge="1" parent="1" source="a7aFBZgi1aLY28mfUyYS-1" target="a7aFBZgi1aLY28mfUyYS-13">
          <mxGeometry width="50" height="50" relative="1" as="geometry">
            <mxPoint y="160" as="sourcePoint" />
            <mxPoint x="50" y="110" as="targetPoint" />
          </mxGeometry>
        </mxCell>
        <mxCell id="a7aFBZgi1aLY28mfUyYS-76" value="" style="endArrow=none;html=1;rounded=0;entryX=0;entryY=0.75;entryDx=0;entryDy=0;exitX=0.6;exitY=0;exitDx=0;exitDy=0;exitPerimeter=0;" edge="1" parent="1" source="a7aFBZgi1aLY28mfUyYS-28" target="a7aFBZgi1aLY28mfUyYS-26">
          <mxGeometry width="50" height="50" relative="1" as="geometry">
            <mxPoint x="520" y="635" as="sourcePoint" />
            <mxPoint x="570" y="585" as="targetPoint" />
          </mxGeometry>
        </mxCell>
        <mxCell id="a7aFBZgi1aLY28mfUyYS-77" value="" style="endArrow=none;html=1;rounded=0;exitX=1;exitY=0.5;exitDx=0;exitDy=0;entryX=0;entryY=0.25;entryDx=0;entryDy=0;" edge="1" parent="1" source="a7aFBZgi1aLY28mfUyYS-27" target="a7aFBZgi1aLY28mfUyYS-26">
          <mxGeometry width="50" height="50" relative="1" as="geometry">
            <mxPoint x="560" y="570" as="sourcePoint" />
            <mxPoint x="610" y="520" as="targetPoint" />
          </mxGeometry>
        </mxCell>
        <mxCell id="a7aFBZgi1aLY28mfUyYS-78" value="" style="endArrow=none;html=1;rounded=0;exitX=0.5;exitY=0;exitDx=0;exitDy=0;entryX=0.41;entryY=1;entryDx=0;entryDy=0;entryPerimeter=0;" edge="1" parent="1" source="a7aFBZgi1aLY28mfUyYS-29" target="a7aFBZgi1aLY28mfUyYS-26">
          <mxGeometry width="50" height="50" relative="1" as="geometry">
            <mxPoint x="630" y="640" as="sourcePoint" />
            <mxPoint x="680" y="590" as="targetPoint" />
          </mxGeometry>
        </mxCell>
        <mxCell id="a7aFBZgi1aLY28mfUyYS-79" value="" style="endArrow=none;html=1;rounded=0;exitX=1;exitY=1;exitDx=0;exitDy=0;entryX=0.24;entryY=0;entryDx=0;entryDy=0;entryPerimeter=0;" edge="1" parent="1" source="a7aFBZgi1aLY28mfUyYS-26" target="a7aFBZgi1aLY28mfUyYS-50">
          <mxGeometry width="50" height="50" relative="1" as="geometry">
            <mxPoint x="710" y="630" as="sourcePoint" />
            <mxPoint x="760" y="580" as="targetPoint" />
          </mxGeometry>
        </mxCell>
        <mxCell id="a7aFBZgi1aLY28mfUyYS-80" value="" style="endArrow=none;html=1;rounded=0;exitX=1;exitY=0.5;exitDx=0;exitDy=0;entryX=0;entryY=0.5;entryDx=0;entryDy=0;" edge="1" parent="1" source="a7aFBZgi1aLY28mfUyYS-26" target="a7aFBZgi1aLY28mfUyYS-30">
          <mxGeometry width="50" height="50" relative="1" as="geometry">
            <mxPoint x="727" y="585" as="sourcePoint" />
            <mxPoint x="777" y="535" as="targetPoint" />
          </mxGeometry>
        </mxCell>
        <mxCell id="a7aFBZgi1aLY28mfUyYS-82" value="" style="endArrow=none;html=1;rounded=0;exitX=0.5;exitY=0;exitDx=0;exitDy=0;entryX=0.19;entryY=1.075;entryDx=0;entryDy=0;entryPerimeter=0;" edge="1" parent="1" source="a7aFBZgi1aLY28mfUyYS-20" target="a7aFBZgi1aLY28mfUyYS-2">
          <mxGeometry width="50" height="50" relative="1" as="geometry">
            <mxPoint x="580" y="240" as="sourcePoint" />
            <mxPoint x="630" y="190" as="targetPoint" />
          </mxGeometry>
        </mxCell>
        <mxCell id="a7aFBZgi1aLY28mfUyYS-86" value="" style="endArrow=none;html=1;rounded=0;exitX=0.75;exitY=1;exitDx=0;exitDy=0;entryX=0.5;entryY=0;entryDx=0;entryDy=0;" edge="1" parent="1" source="a7aFBZgi1aLY28mfUyYS-2" target="a7aFBZgi1aLY28mfUyYS-18">
          <mxGeometry width="50" height="50" relative="1" as="geometry">
            <mxPoint x="670" y="240" as="sourcePoint" />
            <mxPoint x="720" y="190" as="targetPoint" />
          </mxGeometry>
        </mxCell>
        <mxCell id="a7aFBZgi1aLY28mfUyYS-87" value="" style="endArrow=none;html=1;rounded=0;entryX=0.5;entryY=0;entryDx=0;entryDy=0;exitX=1;exitY=1;exitDx=0;exitDy=0;" edge="1" parent="1" source="a7aFBZgi1aLY28mfUyYS-2" target="a7aFBZgi1aLY28mfUyYS-49">
          <mxGeometry width="50" height="50" relative="1" as="geometry">
            <mxPoint x="750" y="240" as="sourcePoint" />
            <mxPoint x="800" y="190" as="targetPoint" />
          </mxGeometry>
        </mxCell>
        <mxCell id="a7aFBZgi1aLY28mfUyYS-88" value="" style="endArrow=none;html=1;rounded=0;entryX=0;entryY=0.5;entryDx=0;entryDy=0;exitX=1;exitY=0.5;exitDx=0;exitDy=0;" edge="1" parent="1" source="a7aFBZgi1aLY28mfUyYS-2" target="a7aFBZgi1aLY28mfUyYS-17">
          <mxGeometry width="50" height="50" relative="1" as="geometry">
            <mxPoint x="715" y="200" as="sourcePoint" />
            <mxPoint x="765" y="150" as="targetPoint" />
          </mxGeometry>
        </mxCell>
        <mxCell id="a7aFBZgi1aLY28mfUyYS-89" value="" style="endArrow=none;html=1;rounded=0;entryX=0.25;entryY=0.975;entryDx=0;entryDy=0;entryPerimeter=0;exitX=0.64;exitY=-0.025;exitDx=0;exitDy=0;exitPerimeter=0;" edge="1" parent="1" source="a7aFBZgi1aLY28mfUyYS-2" target="a7aFBZgi1aLY28mfUyYS-16">
          <mxGeometry width="50" height="50" relative="1" as="geometry">
            <mxPoint x="660" y="150" as="sourcePoint" />
            <mxPoint x="710" y="100" as="targetPoint" />
          </mxGeometry>
        </mxCell>
        <mxCell id="a7aFBZgi1aLY28mfUyYS-90" value="" style="endArrow=none;html=1;rounded=0;entryX=0.5;entryY=1;entryDx=0;entryDy=0;exitX=0.25;exitY=0;exitDx=0;exitDy=0;" edge="1" parent="1" source="a7aFBZgi1aLY28mfUyYS-2" target="a7aFBZgi1aLY28mfUyYS-15">
          <mxGeometry width="50" height="50" relative="1" as="geometry">
            <mxPoint x="600" y="150" as="sourcePoint" />
            <mxPoint x="650" y="100" as="targetPoint" />
          </mxGeometry>
        </mxCell>
        <mxCell id="a7aFBZgi1aLY28mfUyYS-91" value="" style="endArrow=none;html=1;rounded=0;" edge="1" parent="1">
          <mxGeometry relative="1" as="geometry">
            <mxPoint x="640" y="460" as="sourcePoint" />
            <mxPoint x="640" y="559" as="targetPoint" />
          </mxGeometry>
        </mxCell>
        <mxCell id="a7aFBZgi1aLY28mfUyYS-92" value="N" style="resizable=0;html=1;align=right;verticalAlign=bottom;" connectable="0" vertex="1" parent="a7aFBZgi1aLY28mfUyYS-91">
          <mxGeometry x="1" relative="1" as="geometry" />
        </mxCell>
        <mxCell id="a7aFBZgi1aLY28mfUyYS-93" value="" style="endArrow=none;html=1;rounded=0;" edge="1" parent="1">
          <mxGeometry relative="1" as="geometry">
            <mxPoint x="640" y="340" as="sourcePoint" />
            <mxPoint x="640" y="219.5" as="targetPoint" />
          </mxGeometry>
        </mxCell>
        <mxCell id="a7aFBZgi1aLY28mfUyYS-94" value="1" style="resizable=0;html=1;align=right;verticalAlign=bottom;" connectable="0" vertex="1" parent="a7aFBZgi1aLY28mfUyYS-93">
          <mxGeometry x="1" relative="1" as="geometry" />
        </mxCell>
      </root>
    </mxGraphModel>
  </diagram>
</mxfile>
